# xmcd
#
# Track frame offsets:
#	150
#	13305
#	24660
#	36205
#	49411
#	61469
#	75655
#	89614
#	99962
#	115626
#
# Disc length: 1737
#
# Revision: 2
# Processed by: cddbd v1.5.1PL0 Copyright (c) Steve Scherf et al.
# Submitted via: audiograbber 1.82.02
# Normalized: r1:DSETVAR1
#
DISCID=7d06c70a
DTITLE=Various Artist - Good Old Country:  Ladies of Country
DYEAR=2000
DGENRE=Country
TTITLE0=Lynn Anderson - Rose Garden
TTITLE1=Kitty Wells - Heartbreak U.S.A.
TTITLE2=Bonnie Guitar - I'm Living in Two Worlds
TTITLE3=Wanda Jackson - I Fall to Pieces
TTITLE4=Donna Fargo - Funny Face
TTITLE5=Margo Smith - It Only Hurts for a Little While
TTITLE6=Barbara Fairchild - Teddy Bear Song
TTITLE7=Connie Smith - Once a Day
TTITLE8=Lacy J. Dalton - Takin' It Easy
TTITLE9=Jeannie C. Riley - Harper Valley P.T.A.
EXTD=
EXTT0=
EXTT1=
EXTT2=
EXTT3=
EXTT4=
EXTT5=
EXTT6=
EXTT7=
EXTT8=
EXTT9=
PLAYORDER=
